<svg xmlns="http://www.w3.org/2000/svg" version="1.1" xmlns:xlink="http://www.w3.org/1999/xlink" xmlns:svgjs="http://svgjs.dev/svgjs" width="2002" height="60" viewBox="0 0 1000 625"><g transform="matrix(1,0,0,1,0,0)"><svg viewBox="0 0 576 360" data-background-color="#ffffff" preserveAspectRatio="xMidYMid meet" height="625" width="1000" xmlns="http://www.w3.org/2000/svg" xmlns:xlink="http://www.w3.org/1999/xlink"><g id="tight-bounds" transform="matrix(1,0,0,1,0,0)"><svg viewBox="0 0 576 360" height="360" width="576"><g><svg></svg></g><g><svg viewBox="0 0 576 360" height="360" width="576"><g><path d="M132.115 90l155.885-90 155.885 90v180l-155.885 90-155.885-90zM135.648 267.961l152.352 87.96 152.352-87.96v-175.922l-152.352-87.96-152.352 87.96z" fill="#000000" fill-rule="nonzero" stroke="none" stroke-width="1" stroke-linecap="butt" stroke-linejoin="miter" stroke-miterlimit="10" stroke-dasharray="" stroke-dashoffset="0" font-family="none" font-weight="none" font-size="none" text-anchor="none" style="mix-blend-mode: normal" data-fill-palette-color="tertiary"></path></g><g transform="matrix(1,0,0,1,172.8,128.72651273841527)"><svg viewBox="0 0 230.39999999999998 102.54697452316948" height="102.54697452316948" width="230.39999999999998"><g><svg viewBox="0 0 374.34923251142334 166.61623788679245" height="102.54697452316948" width="230.39999999999998"><g transform="matrix(1,0,0,1,143.94923251142333,51.4868359245283)"><svg viewBox="0 0 230.4 63.64256603773585" height="63.64256603773585" width="230.4"><g><svg viewBox="0 0 230.4 63.64256603773585" height="63.64256603773585" width="230.4"><g><svg viewBox="0 0 230.4 63.64256603773585" height="63.64256603773585" width="230.4"><g transform="matrix(1,0,0,1,0,0)"><svg width="230.4" viewBox="2.75 -35.8 132.49 36.599999999999994" height="63.64256603773585" data-palette-color="#a437db"><path d="M17.35 0L2.75 0 2.75-1.65Q4.65-1.7 5.35-2.53 6.05-3.35 6.13-4.78 6.2-6.2 6.2-8.05L6.2-8.05 6.2-29.05Q6.2-30.4 6.25-31.38 6.3-32.35 6.35-33L6.35-33Q5.45-32.95 4.55-32.9 3.65-32.85 2.75-32.8L2.75-32.8 2.75-35Q5.5-35.05 8.28-35.08 11.05-35.1 14.05-35.1L14.05-35.1Q19.85-35.1 23.13-33.05 26.4-31 26.3-26.55L26.3-26.55Q26.3-24.95 25.38-23.35 24.45-21.75 22.63-20.53 20.8-19.3 18.05-18.8L18.05-18.8 18.05-18.7Q23.55-18.7 26.35-16.18 29.15-13.65 29.15-9.8L29.15-9.8Q29.15-6.75 27.6-4.55 26.05-2.35 23.4-1.18 20.75 0 17.35 0L17.35 0ZM10.4-2L10.4-2Q11.2-1.95 12.33-1.93 13.45-1.9 14.43-1.9 15.4-1.9 15.7-1.9L15.7-1.9Q19.55-1.9 21.93-3.83 24.3-5.75 24.3-9.5L24.3-9.5Q24.3-12.55 23.1-14.25 21.9-15.95 19.95-16.65 18-17.35 15.7-17.35L15.7-17.35Q14.2-17.35 12.98-17.32 11.75-17.3 10.55-17.2L10.55-17.2 10.55-5.9Q10.55-4.55 10.53-3.6 10.5-2.65 10.4-2ZM10.55-28.45L10.55-19.15 14.2-19.25Q17.05-19.3 18.7-20.43 20.35-21.55 21.08-23.25 21.8-24.95 21.75-26.8L21.75-26.8Q21.7-29.5 20.53-30.9 19.35-32.3 17.65-32.8 15.95-33.3 14.3-33.3L14.3-33.3Q12.65-33.3 11.85-32.85 11.05-32.4 10.8-31.35 10.55-30.3 10.55-28.45L10.55-28.45ZM58.2 0L33.4 0 33.4-1.65Q35.3-1.75 36-2.53 36.7-3.3 36.77-4.67 36.85-6.05 36.85-7.8L36.85-7.8 36.85-29.4Q36.85-30.4 36.9-31.33 36.95-32.25 37-33L37-33Q36.1-32.95 35.2-32.9 34.3-32.85 33.4-32.8L33.4-32.8 33.4-35 44.65-35 44.65-33.35Q42.8-33.3 42.07-32.5 41.35-31.7 41.27-30.35 41.2-29 41.2-27.2L41.2-27.2 41.2-5.75Q41.2-4.4 41.17-3.45 41.15-2.5 41.05-1.85L41.05-1.85 50.4-2Q53.55-2.05 55.17-4 56.8-5.95 56.8-10.35L56.8-10.35 58.5-10.35 58.2 0ZM78.65 0.8L78.65 0.8Q73.9 0.8 70.5-0.8 67.09-2.4 64.97-5.08 62.84-7.75 61.84-11 60.84-14.25 60.84-17.5L60.84-17.5Q60.84-20.65 61.9-23.88 62.95-27.1 65.12-29.8 67.3-32.5 70.57-34.15 73.84-35.8 78.25-35.8L78.25-35.8Q82.84-35.8 86.2-34.15 89.55-32.5 91.72-29.78 93.9-27.05 94.97-23.85 96.05-20.65 96.05-17.5L96.05-17.5Q96.05-14.4 95-11.18 93.94-7.95 91.77-5.23 89.59-2.5 86.34-0.85 83.09 0.8 78.65 0.8ZM78.75-1.25L78.75-1.25Q81.84-1.25 84.15-2.58 86.45-3.9 87.97-6.13 89.5-8.35 90.27-11.08 91.05-13.8 91.05-16.55L91.05-16.55Q91.05-19.65 90.2-22.7 89.34-25.75 87.7-28.25 86.05-30.75 83.62-32.27 81.2-33.8 78.09-33.8L78.09-33.8Q75-33.8 72.67-32.45 70.34-31.1 68.82-28.88 67.3-26.65 66.52-23.93 65.75-21.2 65.75-18.4L65.75-18.4Q65.75-15.65 66.52-12.65 67.3-9.65 68.9-7.05 70.5-4.45 72.95-2.85 75.4-1.25 78.75-1.25ZM117.59 0.8L117.59 0.8Q112.59 0.8 108.74-1.3 104.89-3.4 102.74-7.35 100.59-11.3 100.59-16.75L100.59-16.75Q100.59-20.3 101.67-23.68 102.74-27.05 104.92-29.8 107.09-32.55 110.37-34.18 113.64-35.8 117.99-35.8L117.99-35.8Q119.79-35.8 121.64-35.48 123.49-35.15 125.22-34.52 126.94-33.9 128.34-33.05L128.34-33.05 128.14-35.45 130.89-35.45 130.89-24 129.09-24Q128.89-27.15 127.42-29.33 125.94-31.5 123.59-32.65 121.24-33.8 118.34-33.8L118.34-33.8Q115.69-33.8 113.37-32.63 111.04-31.45 109.27-29.33 107.49-27.2 106.49-24.3 105.49-21.4 105.49-17.9L105.49-17.9Q105.49-13.2 107.19-9.5 108.89-5.8 111.92-3.7 114.94-1.6 118.89-1.6L118.89-1.6Q120.24-1.6 121.72-1.85 123.19-2.1 124.67-2.68 126.14-3.25 127.44-4.1L127.44-4.1 127.44-10.2Q127.44-11.4 127.44-12.63 127.44-13.85 127.44-15.05L127.44-15.05Q126.59-15 125.69-14.95 124.79-14.9 123.94-14.85L123.94-14.85 123.94-17.05 135.24-17.05 135.24-15.4Q133.84-15.4 133.09-14.68 132.34-13.95 132.04-12.93 131.74-11.9 131.69-10.93 131.64-9.95 131.64-9.45L131.64-9.45 131.64-1.8 130.29-1.8Q129.49-1.8 128.09-1.5 126.69-1.2 124.89-0.5L124.89-0.5Q123.34 0.1 121.29 0.45 119.24 0.8 117.59 0.8Z" opacity="1" transform="matrix(1,0,0,1,0,0)" fill="#000000" class="undefined-text-0" data-fill-palette-color="primary" id="text-0"></path></svg></g></svg></g></svg></g></svg></g><g><svg viewBox="0 0 128.9247500914988 166.61623788679245" height="166.61623788679245" width="128.9247500914988"><g><svg xmlns="http://www.w3.org/2000/svg" xmlns:xlink="http://www.w3.org/1999/xlink" version="1.1" x="0" y="0" viewBox="12.983 1 75.68599999999999 97.813" enable-background="new 0 0 100 100" xml:space="preserve" height="166.61623788679245" width="128.9247500914988" class="icon-icon-0" data-fill-palette-color="accent" id="icon-0"><g fill="#8b3c7f" data-fill-palette-color="accent"><polygon fill-rule="evenodd" clip-rule="evenodd" points="12.983,10.59 30.001,98.813 24.129,39.764 53.15,37.872 53.096,27.989    64.549,1 53.622,18.977  " fill="#000000" data-fill-palette-color="accent"></polygon><polygon fill-rule="evenodd" clip-rule="evenodd" points="59.389,54.548 64.549,1.007 55.809,40.723 36.197,41.768 37.767,62.23    30.001,98.813 42.058,58.914  " fill="#000000" data-fill-palette-color="accent"></polygon><polygon fill-rule="evenodd" clip-rule="evenodd" points="62.8,67.182 63.349,56.729 47.37,60.484 47.338,72.281 30.001,98.813    51.681,71.197  " fill="#000000" data-fill-palette-color="accent"></polygon><polygon fill-rule="evenodd" clip-rule="evenodd" points="65.711,62.394 80.552,57.663 82.061,45.131 66.162,47.226  " fill="#000000" data-fill-palette-color="accent"></polygon><polygon fill-rule="evenodd" clip-rule="evenodd" points="72.07,44.502 83.058,43.085 84.639,32.807 76.56,32.434 64.549,1    72.979,31.967  " fill="#000000" data-fill-palette-color="accent"></polygon><polygon fill-rule="evenodd" clip-rule="evenodd" points="87.413,31.294 88.669,21.788 79.125,19.094 64.549,1 79.032,23.437    78.61,30.437  " fill="#000000" data-fill-palette-color="accent"></polygon></g></svg></g></svg></g></svg></g></svg></g></svg></g><defs></defs></svg><rect width="576" height="360" fill="none" stroke="none" visibility="hidden"></rect></g></svg></g></svg>